<mxfile host="app.diagrams.net" agent="Mozilla/5.0 (Windows NT 10.0; Win64; x64) AppleWebKit/537.36 (KHTML, like Gecko) Chrome/134.0.0.0 Safari/537.36" version="26.1.3">
  <diagram name="Page-1" id="HpZ3DyAI5DhmLgtiFFO9">
    <mxGraphModel dx="1312" dy="2324" grid="1" gridSize="10" guides="1" tooltips="1" connect="1" arrows="1" fold="1" page="1" pageScale="1" pageWidth="827" pageHeight="1169" math="0" shadow="0">
      <root>
        <mxCell id="0" />
        <mxCell id="1" parent="0" />
        <mxCell id="2wEPxrYTYtlZ6vLY6XJu-7" value="" style="edgeStyle=orthogonalEdgeStyle;rounded=0;orthogonalLoop=1;jettySize=auto;html=1;" edge="1" parent="1" source="2wEPxrYTYtlZ6vLY6XJu-4" target="2wEPxrYTYtlZ6vLY6XJu-6">
          <mxGeometry relative="1" as="geometry" />
        </mxCell>
        <mxCell id="2wEPxrYTYtlZ6vLY6XJu-5" value="" style="edgeStyle=orthogonalEdgeStyle;rounded=0;orthogonalLoop=1;jettySize=auto;html=1;" edge="1" parent="1" source="2wEPxrYTYtlZ6vLY6XJu-1" target="2wEPxrYTYtlZ6vLY6XJu-4">
          <mxGeometry relative="1" as="geometry" />
        </mxCell>
        <mxCell id="2wEPxrYTYtlZ6vLY6XJu-11" value="" style="edgeStyle=orthogonalEdgeStyle;rounded=0;orthogonalLoop=1;jettySize=auto;html=1;entryX=0;entryY=0.5;entryDx=0;entryDy=0;" edge="1" parent="1" source="2wEPxrYTYtlZ6vLY6XJu-1" target="2wEPxrYTYtlZ6vLY6XJu-10">
          <mxGeometry relative="1" as="geometry" />
        </mxCell>
        <mxCell id="2wEPxrYTYtlZ6vLY6XJu-1" value="Tribal Basics" style="rounded=1;whiteSpace=wrap;html=1;" vertex="1" parent="1">
          <mxGeometry y="250" width="120" height="60" as="geometry" />
        </mxCell>
        <mxCell id="2wEPxrYTYtlZ6vLY6XJu-24" value="" style="edgeStyle=orthogonalEdgeStyle;rounded=0;orthogonalLoop=1;jettySize=auto;html=1;entryX=0;entryY=0.5;entryDx=0;entryDy=0;" edge="1" parent="1" source="2wEPxrYTYtlZ6vLY6XJu-4" target="2wEPxrYTYtlZ6vLY6XJu-23">
          <mxGeometry relative="1" as="geometry" />
        </mxCell>
        <mxCell id="2wEPxrYTYtlZ6vLY6XJu-4" value="Tribal Advanced" style="whiteSpace=wrap;html=1;rounded=1;" vertex="1" parent="1">
          <mxGeometry x="300" y="250" width="120" height="60" as="geometry" />
        </mxCell>
        <mxCell id="2wEPxrYTYtlZ6vLY6XJu-10" value="Stonecutting" style="shape=hexagon;perimeter=hexagonPerimeter2;whiteSpace=wrap;html=1;fixedSize=1;rounded=1;" vertex="1" parent="1">
          <mxGeometry x="120" y="370" width="120" height="80" as="geometry" />
        </mxCell>
        <mxCell id="2wEPxrYTYtlZ6vLY6XJu-9" value="" style="edgeStyle=orthogonalEdgeStyle;rounded=0;orthogonalLoop=1;jettySize=auto;html=1;" edge="1" parent="1" source="2wEPxrYTYtlZ6vLY6XJu-6" target="2wEPxrYTYtlZ6vLY6XJu-8">
          <mxGeometry relative="1" as="geometry" />
        </mxCell>
        <mxCell id="2wEPxrYTYtlZ6vLY6XJu-26" value="" style="edgeStyle=orthogonalEdgeStyle;rounded=0;orthogonalLoop=1;jettySize=auto;html=1;entryX=0;entryY=0.5;entryDx=0;entryDy=0;" edge="1" parent="1" source="2wEPxrYTYtlZ6vLY6XJu-6" target="2wEPxrYTYtlZ6vLY6XJu-25">
          <mxGeometry relative="1" as="geometry" />
        </mxCell>
        <mxCell id="2wEPxrYTYtlZ6vLY6XJu-6" value="Medieval Basics" style="whiteSpace=wrap;html=1;rounded=1;" vertex="1" parent="1">
          <mxGeometry x="600" y="250" width="120" height="60" as="geometry" />
        </mxCell>
        <mxCell id="2wEPxrYTYtlZ6vLY6XJu-19" value="" style="edgeStyle=orthogonalEdgeStyle;rounded=0;orthogonalLoop=1;jettySize=auto;html=1;" edge="1" parent="1" source="2wEPxrYTYtlZ6vLY6XJu-8" target="2wEPxrYTYtlZ6vLY6XJu-18">
          <mxGeometry relative="1" as="geometry" />
        </mxCell>
        <mxCell id="2wEPxrYTYtlZ6vLY6XJu-28" value="" style="edgeStyle=orthogonalEdgeStyle;rounded=0;orthogonalLoop=1;jettySize=auto;html=1;entryX=0;entryY=0.5;entryDx=0;entryDy=0;" edge="1" parent="1" source="2wEPxrYTYtlZ6vLY6XJu-8" target="2wEPxrYTYtlZ6vLY6XJu-27">
          <mxGeometry relative="1" as="geometry" />
        </mxCell>
        <mxCell id="2wEPxrYTYtlZ6vLY6XJu-8" value="Medieval Advanced" style="whiteSpace=wrap;html=1;rounded=1;" vertex="1" parent="1">
          <mxGeometry x="900" y="250" width="120" height="60" as="geometry" />
        </mxCell>
        <mxCell id="2wEPxrYTYtlZ6vLY6XJu-18" value="" style="whiteSpace=wrap;html=1;rounded=1;" vertex="1" parent="1">
          <mxGeometry x="1200" y="250" width="120" height="60" as="geometry" />
        </mxCell>
        <mxCell id="2wEPxrYTYtlZ6vLY6XJu-20" value="" style="group;movable=0;resizable=0;rotatable=0;deletable=0;editable=0;locked=1;connectable=0;" vertex="1" connectable="0" parent="1">
          <mxGeometry y="-110" width="1200" height="950" as="geometry" />
        </mxCell>
        <mxCell id="2wEPxrYTYtlZ6vLY6XJu-12" value="Vertical Container" style="swimlane;whiteSpace=wrap;html=1;movable=1;resizable=1;rotatable=1;deletable=1;editable=1;locked=0;connectable=1;" vertex="1" parent="2wEPxrYTYtlZ6vLY6XJu-20">
          <mxGeometry width="600" height="950" as="geometry" />
        </mxCell>
        <mxCell id="2wEPxrYTYtlZ6vLY6XJu-13" value="Vertical Container" style="swimlane;whiteSpace=wrap;html=1;movable=1;resizable=1;rotatable=1;deletable=1;editable=1;locked=0;connectable=1;" vertex="1" parent="2wEPxrYTYtlZ6vLY6XJu-20">
          <mxGeometry x="600" width="600" height="950" as="geometry" />
        </mxCell>
        <mxCell id="2wEPxrYTYtlZ6vLY6XJu-23" value="" style="shape=hexagon;perimeter=hexagonPerimeter2;whiteSpace=wrap;html=1;fixedSize=1;rounded=1;" vertex="1" parent="1">
          <mxGeometry x="420" y="370" width="120" height="80" as="geometry" />
        </mxCell>
        <mxCell id="2wEPxrYTYtlZ6vLY6XJu-25" value="Smithing" style="shape=hexagon;perimeter=hexagonPerimeter2;whiteSpace=wrap;html=1;fixedSize=1;rounded=1;" vertex="1" parent="1">
          <mxGeometry x="720" y="370" width="120" height="80" as="geometry" />
        </mxCell>
        <mxCell id="2wEPxrYTYtlZ6vLY6XJu-27" value="" style="shape=hexagon;perimeter=hexagonPerimeter2;whiteSpace=wrap;html=1;fixedSize=1;rounded=1;" vertex="1" parent="1">
          <mxGeometry x="1020" y="370" width="120" height="80" as="geometry" />
        </mxCell>
      </root>
    </mxGraphModel>
  </diagram>
</mxfile>
